# xmcd
#
# Track frame offsets: 
#        150
#        9833
#        24958
#        36038
#        49537
#        61774
#        72019
#        87824
#        99680
#        111257
#        120749
#        135690
#        151730
#        161617
#        176068
#        188077
#        197013
#        210762
#        224194
#        233166
#        248099
#        260721
#        277371
#
# Disc length: 3858 seconds
#
# Revision: 2
# Processed by: cddbd v1.5.2PL0 Copyright (c) Steve Scherf et al.
# Submitted via: ExactAudioCopyFreeDBPlugin 1.0
#
DISCID=3d0f1017
DTITLE=NOUGARO Claude - Les 100 plus belles chansons - CD1 - Le Jazz e
DTITLE=t la Java
DYEAR=2006
DGENRE=Jazz
TTITLE0=Une petite fille
TTITLE1=Les Don Juan
TTITLE2=Le jazz et la java
TTITLE3=Le Cinéma
TTITLE4=Ouh ! (Allez-y les bergères)
TTITLE5=Le rouge et le noir (Enseigne au néon)
TTITLE6=Cécile ma fille
TTITLE7=Chanson pour Marylin
TTITLE8=Les mines de charbon
TTITLE9=Tout feu tout femme
TTITLE10=Je suis sous...
TTITLE11=Sensuel
TTITLE12=La marche arrière
TTITLE13=Mon assassin
TTITLE14=Parler aux femmes
TTITLE15=Les P'tits brun et les Grands blonds
TTITLE16=Il y avait une ville
TTITLE17=Sing Sing Song (Work Song)
TTITLE18=Les mains d'une femme dans la farine (Gravy Waltz)
TTITLE19=Armstrong (Let My People Go)
TTITLE20=Chanson pour le maçon
TTITLE21=Blanche-Neige
TTITLE22=Sing Sing Song (Work Song) - inédit
EXTD=YEAR: 2006
EXTT0=
EXTT1=
EXTT2=
EXTT3=
EXTT4=
EXTT5=
EXTT6=
EXTT7=
EXTT8=
EXTT9=
EXTT10=
EXTT11=
EXTT12=
EXTT13=
EXTT14=
EXTT15=
EXTT16=
EXTT17=
EXTT18=
EXTT19=
EXTT20=
EXTT21=
EXTT22=
PLAYORDER=
